# xmcd
#
# Track frame offsets:
#	150
#	12128
#	26340
#	42154
#	54855
#	68824
#	82230
#	99224
#	112242
#	125846
#	138565
#	149166
#	166175
#	177123
#	187839
#	199539
#	207867
#	221072
#	232842
#	251748
#
# Disc length: 3498 seconds
# Revision: 14
# Processed by: cddbd v1.5.2PL0 Copyright (c) Steve Scherf et al.
# Submitted via: cdrLabel 7.1
#
DISCID=1b0da814
DTITLE=Johnny Cash - The Best Of Johnny Cash 
DYEAR=1988
DGENRE=Country
TTITLE0=Ring Of Fire
TTITLE1=Orange Blossom Special
TTITLE2=The Night They Drove Old Dixie Down
TTITLE3=Jackson
TTITLE4=Don't Take Your Guns To Town
TTITLE5=I Walk The Line
TTITLE6=A Boy Named Sue
TTITLE7=San Quentin
TTITLE8=If I Were A Carpenter (with June Carter)
TTITLE9=Folsom Prison Blues
TTITLE10=Kate
TTITLE11=(Ghost) Riders In The Sky
TTITLE12=Daddy Sang Bass
TTITLE13=Bonanza
TTITLE14=In Them Old Cottonfields Back Home
TTITLE15=Five Feet High And Rising
TTITLE16=Man In Black
TTITLE17=A Thing Called Love
TTITLE18=The Ballad Of Ira Hayes
TTITLE19=In The Jailhouse Now
EXTD=Entey logged at Jan. 10, 1997 by:\\\\nHugo van der Kooij <hvdkooij@cai
EXTD=w.nl>\\\\n YEAR: 1988
EXTT0=
EXTT1=
EXTT2=
EXTT3=
EXTT4=
EXTT5=
EXTT6=
EXTT7=
EXTT8=
EXTT9=
EXTT10=
EXTT11=
EXTT12=
EXTT13=
EXTT14=
EXTT15=
EXTT16=
EXTT17=
EXTT18=
EXTT19=
PLAYORDER=
